HIERARCHY
ROOT Hips
{
	OFFSET 0.000000 0.000000 0.000000
	CHANNELS 6 Xposition Yposition Zposition Yrotation Xrotation Zrotation
	JOINT Spine
	{
		OFFSET 0.000000 1.813613 0.000001
		CHANNELS 6 Xposition Yposition Zposition Yrotation Xrotation Zrotation
		JOINT Spine1
		{
			OFFSET 0.000000 4.103837 0.000003
			CHANNELS 6 Xposition Yposition Zposition Yrotation Xrotation Zrotation
			JOINT Neck
			{
				OFFSET 0.000000 4.546181 0.000003
				CHANNELS 6 Xposition Yposition Zposition Yrotation Xrotation Zrotation
				JOINT Head
				{
					OFFSET 0.000000 3.428171 0.442347
					CHANNELS 6 Xposition Yposition Zposition Yrotation Xrotation Zrotation
					End Site
					{
						OFFSET 0.000000 4.423446 0.000003
					}
				}
			}
			JOINT LeftShoulder
			{
				OFFSET 0.882844 3.709369 -0.096478
				CHANNELS 6 Xposition Yposition Zposition Yrotation Xrotation Zrotation
				JOINT LeftArm
				{
					OFFSET 2.558750 0.000000 0.000000
					CHANNELS 6 Xposition Yposition Zposition Yrotation Xrotation Zrotation
					JOINT LeftForeArm
					{
						OFFSET 6.635536 0.000000 0.000000
						CHANNELS 6 Xposition Yposition Zposition Yrotation Xrotation Zrotation
						JOINT LeftHand
						{
							OFFSET 5.934642 0.000000 0.000000
							CHANNELS 6 Xposition Yposition Zposition Yrotation Xrotation Zrotation
							End Site
							{
								OFFSET 3.317585 0.000000 0.000000
							}
						}
					}
				}
			}
			JOINT RightShoulder
			{
				OFFSET -0.884649 3.709369 -0.096478
				CHANNELS 6 Xposition Yposition Zposition Yrotation Xrotation Zrotation
				JOINT RightArm
				{
					OFFSET -2.558751 0.000000 0.000000
					CHANNELS 6 Xposition Yposition Zposition Yrotation Xrotation Zrotation
					JOINT RightForeArm
					{
						OFFSET -6.635536 0.000000 0.000000
						CHANNELS 6 Xposition Yposition Zposition Yrotation Xrotation Zrotation
						JOINT RightHand
						{
							OFFSET -5.934641 0.000000 0.000000
							CHANNELS 6 Xposition Yposition Zposition Yrotation Xrotation Zrotation
							End Site
							{
								OFFSET -3.317585 0.000000 0.000000
							}
						}
					}
				}
			}
		}
	}
	JOINT LeftUpLeg
	{
		OFFSET 2.211723 0.000000 0.000000
		CHANNELS 6 Xposition Yposition Zposition Yrotation Xrotation Zrotation
		JOINT LeftLeg
		{
			OFFSET 0.000000 -11.511356 -0.000007
			CHANNELS 6 Xposition Yposition Zposition Yrotation Xrotation Zrotation
			JOINT LeftFoot
			{
				OFFSET 0.000000 -9.247384 -0.000006
				CHANNELS 6 Xposition Yposition Zposition Yrotation Xrotation Zrotation
				JOINT LeftToeBase
				{
					OFFSET 0.000000 -1.437620 3.317584
					CHANNELS 6 Xposition Yposition Zposition Yrotation Xrotation Zrotation
					End Site
					{
						OFFSET 0.000000 0.000000 0.884689
					}
				}
			}
		}
	}
	JOINT RightUpLeg
	{
		OFFSET -2.211723 0.000000 0.000000
		CHANNELS 6 Xposition Yposition Zposition Yrotation Xrotation Zrotation
		JOINT RightLeg
		{
			OFFSET 0.000000 -11.511356 -0.000007
			CHANNELS 6 Xposition Yposition Zposition Yrotation Xrotation Zrotation
			JOINT RightFoot
			{
				OFFSET 0.000000 -9.247384 -0.000006
				CHANNELS 6 Xposition Yposition Zposition Yrotation Xrotation Zrotation
				JOINT RightToeBase
				{
					OFFSET 0.000000 -1.437620 3.317584
					CHANNELS 6 Xposition Yposition Zposition Yrotation Xrotation Zrotation
					End Site
					{
						OFFSET 0.000000 0.000000 0.884689
					}
				}
			}
		}
	}
}
MOTION
Frames: 6
Frame Time: 0.041667
0.055495 18.191927 -2.890247 -0.546857 3.147289 -1.285811 -0.000000 1.813612 0.000001 -4.089027 11.038808 -2.511389 -0.000000 4.103845 0.000002 -1.674048 10.599492 -4.267407 0.000001 4.546174 0.000004 -17.916107 11.064741 -6.784361 -0.000001 3.428169 0.442350 -18.429934 15.234626 22.444265 0.882845 3.709364 -0.096479 -17.328972 1.863885 -1.024573 2.558748 0.000003 0.000003 -64.492238 43.698058 -48.813750 6.635533 0.000000 -0.000008 -60.758460 37.369307 71.919843 5.934649 0.000011 -0.000001 -11.172147 -8.300748 33.453334 -0.884648 3.709367 -0.096481 7.685621 -1.657649 -2.429387 -2.558749 0.000001 0.000004 31.328756 22.686642 29.767132 -6.635536 0.000001 -0.000002 -2.479870 -11.268879 -3.559199 -5.934639 -0.000003 0.000003 -3.056391 -11.745898 -20.903442 2.211723 0.000000 0.000001 -14.140326 -13.372815 38.737886 -0.000002 -11.511350 -0.000007 15.136953 43.228441 -25.678988 -0.000001 -9.247385 -0.000005 25.652871 -15.550285 -8.849717 -0.000002 -1.437620 3.317581 -0.000004 -0.000000 -0.000003 -2.211723 0.000000 0.000000 2.186516 -18.332235 -34.467498 0.000001 -11.511354 -0.000008 1.980272 39.718236 35.457715 0.000003 -9.247390 -0.000007 -34.114196 -20.865985 7.700517 -0.000001 -1.437619 3.317583 -0.000001 -0.000003 0.000002 
0.053598 18.191931 -2.888030 -0.545425 3.151847 -1.291223 -0.000000 1.813616 0.000001 -4.084855 11.052049 -2.516531 0.000000 4.103838 0.000003 -1.673413 10.614479 -4.272317 0.000001 4.546179 0.000006 -17.914357 11.066187 -6.776249 -0.000001 3.428176 0.442348 -18.429633 15.225258 22.430522 0.882844 3.709369 -0.096477 -17.326250 1.862711 -1.021255 2.558749 0.000007 0.000003 -64.516813 43.706493 -48.840401 6.635538 0.000002 -0.000005 -60.743891 37.373279 71.937663 5.934647 0.000002 -0.000002 -11.169828 -8.304775 33.394697 -0.884648 3.709369 -0.096476 7.681902 -1.657423 -2.418271 -2.558753 0.000006 0.000002 31.345490 22.702451 29.772651 -6.635539 -0.000000 -0.000004 -2.466069 -11.303115 -3.553839 -5.934642 -0.000002 0.000004 -3.035068 -11.778512 -20.969297 2.211722 0.000003 -0.000000 -14.140647 -13.368594 38.743982 -0.000000 -11.511358 -0.000006 15.074040 43.201138 -25.713874 -0.000004 -9.247388 -0.000006 25.704505 -15.539408 -8.882802 -0.000001 -1.437620 3.317584 -0.000004 0.000000 -0.000003 -2.211723 -0.000000 -0.000001 2.180264 -18.335446 -34.457253 -0.000001 -11.511359 -0.000008 1.990346 39.723783 35.467192 0.000004 -9.247388 -0.000007 -34.121422 -20.874433 7.700610 -0.000001 -1.437620 3.317581 0.000001 0.000000 0.000002 
0.051344 18.192587 -2.886824 -0.537292 3.165283 -1.296417 0.000000 1.813616 0.000000 -4.085722 11.062766 -2.508232 -0.000000 4.103842 0.000002 -1.671908 10.611385 -4.252598 0.000000 4.546184 0.000003 -17.912890 11.068968 -6.768329 0.000001 3.428170 0.442346 -18.430738 15.210821 22.391524 0.882845 3.709368 -0.096477 -17.315535 1.873210 -1.030639 2.558750 0.000005 0.000004 -64.575026 43.711954 -48.877363 6.635536 -0.000001 0.000001 -60.683246 37.358010 71.999141 5.934642 0.000010 0.000000 -11.191221 -8.315474 33.364842 -0.884648 3.709368 -0.096477 7.690329 -1.641491 -2.427339 -2.558752 -0.000002 -0.000000 31.359929 22.715818 29.785389 -6.635536 -0.000006 0.000003 -2.485061 -11.292720 -3.535022 -5.934645 -0.000002 -0.000001 -3.052197 -11.772743 -21.031790 2.211723 0.000002 -0.000000 -14.148154 -13.377936 38.752004 0.000000 -11.511358 -0.000007 15.080158 43.198990 -25.696213 -0.000002 -9.247388 -0.000007 25.699497 -15.534644 -8.869254 0.000000 -1.437620 3.317584 0.000002 0.000001 -0.000000 -2.211723 0.000002 -0.000000 2.172973 -18.346740 -34.442202 -0.000002 -11.511353 -0.000008 1.960146 39.746356 35.442729 0.000004 -9.247390 -0.000005 -34.105628 -20.878452 7.712759 0.000002 -1.437620 3.317582 0.000002 0.000001 0.000002 
0.049083 18.192642 -2.884784 -0.532787 3.166831 -1.295431 0.000000 1.813615 0.000002 -4.079231 11.065667 -2.498302 -0.000000 4.103832 0.000002 -1.669123 10.620218 -4.238794 -0.000000 4.546179 0.000005 -17.908093 11.053788 -6.771573 -0.000001 3.428183 0.442342 -18.427096 15.214960 22.378235 0.882845 3.709363 -0.096476 -17.314449 1.867736 -1.042856 2.558751 -0.000002 0.000005 -64.566331 43.712087 -48.874119 6.635541 -0.000000 -0.000004 -60.711660 37.371489 71.966882 5.934647 -0.000002 -0.000003 -11.184115 -8.299915 33.359921 -0.884649 3.709368 -0.096477 7.685350 -1.647873 -2.438657 -2.558752 0.000008 -0.000001 31.454664 22.806382 29.849474 -6.635540 0.000000 -0.000007 -2.539973 -11.347731 -3.551796 -5.934646 -0.000003 0.000002 -3.022810 -11.818976 -20.982360 2.211723 0.000003 -0.000001 -14.146650 -13.374586 38.748486 0.000001 -11.511356 -0.000007 15.080914 43.189065 -25.683402 -0.000002 -9.247388 -0.000007 25.710099 -15.513036 -8.921379 -0.000002 -1.437620 3.317583 0.000008 -0.000001 -0.000001 -2.211723 0.000005 -0.000001 2.169797 -18.346875 -34.433678 0.000003 -11.511354 -0.000006 1.919346 39.779923 35.407776 0.000003 -9.247385 -0.000005 -34.079157 -20.868082 7.667242 -0.000000 -1.437620 3.317586 0.000005 0.000004 0.000001 
0.047264 18.192797 -2.883367 -0.536385 3.175865 -1.297412 -0.000000 1.813611 0.000001 -4.068625 11.066446 -2.485634 0.000000 4.103833 0.000003 -1.663836 10.613146 -4.218551 -0.000002 4.546189 0.000005 -17.909296 11.045528 -6.775091 -0.000004 3.428175 0.442350 -18.428834 15.219495 22.358882 0.882843 3.709373 -0.096477 -17.316170 1.865612 -1.048941 2.558752 0.000000 0.000005 -64.660042 43.737000 -48.954459 6.635534 -0.000001 -0.000007 -60.628618 37.350627 72.057143 5.934642 -0.000002 -0.000003 -11.172326 -8.324514 33.403795 -0.884649 3.709372 -0.096475 7.674610 -1.621748 -2.444074 -2.558752 -0.000001 0.000004 31.483545 22.817884 29.848886 -6.635538 -0.000004 0.000001 -2.550507 -11.352540 -3.538424 -5.934641 -0.000002 -0.000001 -3.018260 -11.821748 -20.938310 2.211723 -0.000001 -0.000000 -14.146412 -13.372599 38.755323 0.000001 -11.511356 -0.000007 15.055894 43.173793 -25.698705 -0.000001 -9.247387 -0.000008 25.722013 -15.520095 -8.910515 -0.000002 -1.437620 3.317584 0.000002 -0.000002 -0.000004 -2.211723 -0.000004 -0.000001 2.172124 -18.356543 -34.427688 0.000002 -11.511356 -0.000008 1.934122 39.784452 35.419496 0.000003 -9.247385 -0.000006 -34.078874 -20.897872 7.712079 -0.000003 -1.437619 3.317583 0.000001 -0.000002 -0.000000 
0.045438 18.192656 -2.881082 -0.526428 3.177526 -1.289929 0.000000 1.813621 0.000001 -4.066860 11.069853 -2.472640 -0.000000 4.103835 0.000003 -1.662968 10.617008 -4.209750 -0.000001 4.546185 0.000003 -17.906574 11.036998 -6.780965 -0.000005 3.428173 0.442349 -18.427196 15.219921 22.350437 0.882844 3.709371 -0.096480 -17.313198 1.863161 -1.055950 2.558749 0.000000 0.000005 -64.642884 43.728101 -48.944599 6.635533 -0.000001 -0.000005 -60.677666 37.364622 72.005651 5.934645 0.000004 -0.000001 -11.174967 -8.304217 33.442327 -0.884648 3.709371 -0.096476 7.666933 -1.622678 -2.453095 -2.558750 0.000002 0.000002 31.622232 22.982740 29.933482 -6.635536 -0.000001 -0.000002 -2.587148 -11.445590 -3.572988 -5.934644 -0.000002 -0.000000 -3.020551 -11.911123 -20.861023 2.211723 0.000005 -0.000001 -14.139157 -13.383943 38.734764 -0.000000 -11.511354 -0.000007 15.104463 43.186296 -25.627152 -0.000002 -9.247383 -0.000006 25.685992 -15.528257 -8.891632 -0.000001 -1.437620 3.317584 -0.000000 0.000001 -0.000002 -2.211723 0.000006 -0.000001 2.145895 -18.363892 -34.429170 -0.000002 -11.511351 -0.000008 1.992018 39.774538 35.451960 -0.000000 -9.247385 -0.000006 -34.118694 -20.889143 7.663777 -0.000002 -1.437620 3.317581 -0.000006 0.000002 0.000001 
